<svg data-v-423bf9ae="" xmlns="http://www.w3.org/2000/svg" viewBox="0 0 477.5125490240713 163" class="iconAbove"><!----><!----><!----><g data-v-423bf9ae="" id="9ac300f5-7fa2-4ba6-a283-6702ddc9fd9e" fill="#2F1911" transform="matrix(3.76884420304397,0,0,3.76884420304397,-2.0728629167756196,59.997485357325345)"><path d="M8.90 17.44L7.46 17.44L7.46 17.44Q7.70 17.89 7.70 18.40L7.70 18.40L7.70 18.40Q7.70 19.25 6.98 20.04L6.98 20.04L6.98 20.04Q6.26 20.83 5.19 21.24L5.19 21.24L5.19 21.24Q4.83 21.66 4.83 22.08L4.83 22.08L4.83 22.08Q4.83 22.27 5.14 22.46L5.14 22.46L5.14 22.46Q5.45 22.65 6.10 22.95L6.10 22.95L6.10 22.95Q7.07 23.37 7.59 23.72L7.59 23.72L7.59 23.72Q8.11 24.08 8.11 24.56L8.11 24.56L8.11 24.56Q8.11 25.00 7.55 25.67L7.55 25.67L7.55 25.67Q6.99 26.33 6.15 26.83L6.15 26.83L6.15 26.83Q5.32 27.33 4.54 27.33L4.54 27.33L4.54 27.33Q3.68 27.33 2.51 27.06L2.51 27.06L2.51 27.06Q1.33 26.80 0.55 26.53L0.55 26.53L0.55 24.02L1.43 24.02L1.43 24.02Q2.11 24.95 2.82 25.43L2.82 25.43L2.82 25.43Q3.53 25.91 4.42 25.91L4.42 25.91L4.42 25.91Q4.89 25.91 5.20 25.71L5.20 25.71L5.20 25.71Q5.52 25.51 5.52 25.28L5.52 25.28L5.52 25.28Q5.52 24.96 5.15 24.72L5.15 24.72L5.15 24.72Q4.77 24.47 4.00 24.12L4.00 24.12L4.00 24.12Q3.18 23.76 2.76 23.47L2.76 23.47L2.76 23.47Q2.34 23.18 2.34 22.81L2.34 22.81L2.34 22.81Q2.34 22.47 2.85 22.12L2.85 22.12L2.85 22.12Q3.36 21.77 4.07 21.50L4.07 21.50L4.07 21.50Q3.79 21.53 3.65 21.53L3.65 21.53L3.65 21.53Q2.80 21.53 2.09 21.20L2.09 21.20L2.09 21.20Q1.39 20.86 0.98 20.29L0.98 20.29L0.98 20.29Q0.57 19.73 0.57 19.08L0.57 19.08L0.57 19.08Q0.57 18.28 1.16 17.56L1.16 17.56L1.16 17.56Q1.75 16.83 2.69 16.39L2.69 16.39L2.69 16.39Q3.63 15.95 4.61 15.95L4.61 15.95L4.61 15.95Q5.73 15.95 6.58 16.51L6.58 16.51L8.89 16.51L8.90 17.44ZM4.48 19.94L4.48 19.94Q4.93 19.94 5.17 19.72L5.17 19.72L5.17 19.72Q5.42 19.50 5.42 19.07L5.42 19.07L5.42 19.07Q5.42 18.38 4.98 17.98L4.98 17.98L4.98 17.98Q4.54 17.58 3.81 17.58L3.81 17.58L3.81 17.58Q2.88 17.58 2.88 18.41L2.88 18.41L2.88 18.41Q2.88 19.08 3.33 19.51L3.33 19.51L3.33 19.51Q3.77 19.94 4.48 19.94L4.48 19.94ZM14.22 15.95L14.22 15.95Q15.26 15.95 16.07 16.43L16.07 16.43L16.07 16.43Q16.88 16.91 17.34 17.75L17.34 17.75L17.34 17.75Q17.79 18.59 17.79 19.61L17.79 19.61L17.79 19.61Q17.79 20.72 17.08 21.68L17.08 21.68L17.08 21.68Q16.37 22.64 15.30 23.21L15.30 23.21L15.30 23.21Q14.22 23.77 13.23 23.77L13.23 23.77L13.23 23.77Q12.21 23.77 11.39 23.29L11.39 23.29L11.39 23.29Q10.57 22.81 10.12 21.97L10.12 21.97L10.12 21.97Q9.66 21.13 9.66 20.10L9.66 20.10L9.66 20.10Q9.66 19.00 10.37 18.04L10.37 18.04L10.37 18.04Q11.09 17.08 12.16 16.51L12.16 16.51L12.16 16.51Q13.23 15.95 14.22 15.95L14.22 15.95ZM13.41 17.57L13.41 17.57Q12.82 17.57 12.52 18.04L12.52 18.04L12.52 18.04Q12.22 18.51 12.22 19.43L12.22 19.43L12.22 19.43Q12.22 20.61 12.70 21.39L12.70 21.39L12.70 21.39Q13.17 22.16 14.04 22.16L14.04 22.16L14.04 22.16Q14.62 22.16 14.92 21.68L14.92 21.68L14.92 21.68Q15.22 21.20 15.22 20.27L15.22 20.27L15.22 20.27Q15.22 19.10 14.74 18.33L14.74 18.33L14.74 18.33Q14.27 17.57 13.41 17.57L13.41 17.57ZM23.72 22.72L23.25 23.63L18.83 23.63L18.83 22.85L20.08 21.80L20.08 14.14L18.83 13.31L18.83 12.53L21.57 11.41L22.46 11.41L22.46 22.30L23.72 22.72ZM33.99 22.72L33.53 23.63L30.35 23.63L30.35 22.60L29.01 23.66L29.01 23.66Q28.56 23.77 27.97 23.77L27.97 23.77L27.97 23.77Q27.05 23.77 26.31 23.29L26.31 23.29L26.31 23.29Q25.58 22.81 25.16 21.97L25.16 21.97L25.16 21.97Q24.75 21.13 24.75 20.10L24.75 20.10L24.75 20.10Q24.75 19.00 25.47 18.04L25.47 18.04L25.47 18.04Q26.18 17.08 27.25 16.51L27.25 16.51L27.25 16.51Q28.32 15.95 29.32 15.95L29.32 15.95L29.32 15.95Q29.88 15.95 30.35 16.23L30.35 16.23L30.35 14.14L29.11 13.31L29.11 12.53L31.85 11.41L32.73 11.41L32.73 22.30L33.99 22.72ZM28.83 21.90L28.83 21.90Q29.65 21.90 30.35 21.49L30.35 21.49L30.35 18.82L30.35 18.82Q30.27 18.27 29.79 17.92L29.79 17.92L29.79 17.92Q29.32 17.57 28.50 17.57L28.50 17.57L28.50 17.57Q27.27 17.57 27.27 19.45L27.27 19.45L27.27 19.45Q27.27 20.51 27.67 21.20L27.67 21.20L27.67 21.20Q28.07 21.90 28.83 21.90L28.83 21.90ZM39.54 15.95L39.54 15.95Q41.01 15.95 41.81 17.07L41.81 17.07L41.81 17.07Q42.62 18.19 42.59 20.17L42.59 20.17L37.55 20.17L37.55 20.17Q37.69 21.03 38.15 21.54L38.15 21.54L38.15 21.54Q38.61 22.05 39.35 22.05L39.35 22.05L39.35 22.05Q40.33 22.05 42.17 21.07L42.17 21.07L42.59 21.87L40.46 23.56L40.46 23.56Q39.63 23.77 38.54 23.77L38.54 23.77L38.54 23.77Q37.52 23.77 36.70 23.29L36.70 23.29L36.70 23.29Q35.88 22.81 35.43 21.97L35.43 21.97L35.43 21.97Q34.97 21.13 34.97 20.10L34.97 20.10L34.97 20.10Q34.97 19.00 35.69 18.04L35.69 18.04L35.69 18.04Q36.40 17.08 37.47 16.51L37.47 16.51L37.47 16.51Q38.54 15.95 39.54 15.95L39.54 15.95ZM38.77 17.57L38.77 17.57Q38.15 17.57 37.84 17.98L37.84 17.98L37.84 17.98Q37.53 18.40 37.51 19.25L37.51 19.25L40.18 19.25L40.18 19.25Q40.07 18.38 39.77 17.98L39.77 17.98L39.77 17.98Q39.47 17.57 38.75 17.57L38.75 17.57L38.77 17.57ZM53.66 22.72L53.20 23.63L50.02 23.63L50.02 19.15L50.02 19.15Q50.02 18.49 49.82 18.22L49.82 18.22L49.82 18.22Q49.62 17.95 49.11 17.95L49.11 17.95L49.11 17.95Q48.37 17.95 47.64 18.42L47.64 18.42L47.64 22.30L48.90 22.72L48.44 23.63L44.02 23.63L44.02 22.85L45.26 21.80L45.26 18.62L44.02 17.84L44.02 17.05L46.93 15.82L47.47 17.44L49.21 16.06L49.21 16.06Q49.59 15.95 50.06 15.95L50.06 15.95L50.06 15.95Q51.13 15.95 51.76 16.53L51.76 16.53L51.76 16.53Q52.40 17.11 52.40 18.10L52.40 18.10L52.40 22.30L53.66 22.72ZM71.92 22.72L71.47 23.63L68.28 23.63L68.28 18.98L68.28 18.98Q68.28 18.41 68.10 18.18L68.10 18.18L68.10 18.18Q67.93 17.95 67.47 17.95L67.47 17.95L67.47 17.95Q66.78 17.95 66.12 18.42L66.12 18.42L66.12 22.33L67.30 22.72L66.85 23.63L63.74 23.63L63.74 18.98L63.74 18.98Q63.74 18.41 63.57 18.18L63.57 18.18L63.57 18.18Q63.39 17.95 62.93 17.95L62.93 17.95L62.93 17.95Q62.24 17.95 61.60 18.42L61.60 18.42L61.60 22.33L62.76 22.72L62.31 23.63L57.97 23.63L57.97 22.85L59.22 21.80L59.22 18.62L57.97 17.84L57.97 17.05L60.89 15.82L61.43 17.44L63.11 16.06L63.11 16.06Q63.45 15.95 63.88 15.95L63.88 15.95L63.88 15.95Q64.71 15.95 65.27 16.33L65.27 16.33L65.27 16.33Q65.84 16.72 66.04 17.39L66.04 17.39L67.66 16.06L67.66 16.06Q68.00 15.95 68.43 15.95L68.43 15.95L68.43 15.95Q69.45 15.95 70.06 16.53L70.06 16.53L70.06 16.53Q70.67 17.11 70.67 18.10L70.67 18.10L70.67 22.30L71.92 22.72ZM81.24 22.72L80.79 23.63L77.60 23.63L77.60 22.41L76.02 23.66L76.02 23.66Q75.74 23.77 75.32 23.77L75.32 23.77L75.32 23.77Q73.98 23.77 73.38 23.11L73.38 23.11L73.38 23.11Q72.79 22.46 72.79 21.53L72.79 21.53L72.79 21.53Q72.79 20.99 73.12 20.46L73.12 20.46L73.12 20.46Q73.46 19.94 74.09 19.49L74.09 19.49L77.60 19.49L77.60 19.25L77.60 19.25Q77.60 18.48 77.18 18.12L77.18 18.12L77.18 18.12Q76.76 17.75 76.06 17.75L76.06 17.75L76.06 17.75Q75.08 17.75 73.50 18.52L73.50 18.52L73.08 17.72L75.03 16.16L75.03 16.16Q75.74 15.95 76.69 15.95L76.69 15.95L76.69 15.95Q78.26 15.95 79.12 16.66L79.12 16.66L79.12 16.66Q79.98 17.37 79.98 18.73L79.98 18.73L79.98 22.23L81.24 22.72ZM76.03 21.90L76.03 21.90Q76.75 21.90 77.60 21.31L77.60 21.31L77.60 20.41L75.35 20.41L75.35 20.41Q75.24 20.58 75.19 20.73L75.19 20.73L75.19 20.73Q75.14 20.87 75.14 21.06L75.14 21.06L75.14 21.06Q75.14 21.41 75.38 21.64L75.38 21.64L75.38 21.64Q75.63 21.88 76.03 21.88L76.03 21.88L76.03 21.90ZM91.67 22.72L91.21 23.63L88.03 23.63L88.03 19.15L88.03 19.15Q88.03 18.49 87.83 18.22L87.83 18.22L87.83 18.22Q87.63 17.95 87.12 17.95L87.12 17.95L87.12 17.95Q86.38 17.95 85.65 18.42L85.65 18.42L85.65 22.30L86.91 22.72L86.45 23.63L82.03 23.63L82.03 22.85L83.27 21.80L83.27 18.62L82.03 17.84L82.03 17.05L84.94 15.82L85.48 17.44L87.22 16.06L87.22 16.06Q87.60 15.95 88.07 15.95L88.07 15.95L88.07 15.95Q89.14 15.95 89.77 16.53L89.77 16.53L89.77 16.53Q90.41 17.11 90.41 18.10L90.41 18.10L90.41 22.30L91.67 22.72ZM100.97 22.72L100.52 23.63L97.33 23.63L97.33 22.41L95.75 23.66L95.75 23.66Q95.47 23.77 95.05 23.77L95.05 23.77L95.05 23.77Q93.70 23.77 93.11 23.11L93.11 23.11L93.11 23.11Q92.51 22.46 92.51 21.53L92.51 21.53L92.51 21.53Q92.51 20.99 92.85 20.46L92.85 20.46L92.85 20.46Q93.18 19.94 93.81 19.49L93.81 19.49L97.33 19.49L97.33 19.25L97.33 19.25Q97.33 18.48 96.91 18.12L96.91 18.12L96.91 18.12Q96.49 17.75 95.79 17.75L95.79 17.75L95.79 17.75Q94.81 17.75 93.23 18.52L93.23 18.52L92.81 17.72L94.75 16.16L94.75 16.16Q95.47 15.95 96.42 15.95L96.42 15.95L96.42 15.95Q97.99 15.95 98.85 16.66L98.85 16.66L98.85 16.66Q99.71 17.37 99.71 18.73L99.71 18.73L99.71 22.23L100.97 22.72ZM95.76 21.90L95.76 21.90Q96.47 21.90 97.33 21.31L97.33 21.31L97.33 20.41L95.07 20.41L95.07 20.41Q94.96 20.58 94.91 20.73L94.91 20.73L94.91 20.73Q94.86 20.87 94.86 21.06L94.86 21.06L94.86 21.06Q94.86 21.41 95.11 21.64L95.11 21.64L95.11 21.64Q95.35 21.88 95.76 21.88L95.76 21.88L95.76 21.90ZM110.05 17.44L108.61 17.44L108.61 17.44Q108.85 17.89 108.85 18.40L108.85 18.40L108.85 18.40Q108.85 19.25 108.13 20.04L108.13 20.04L108.13 20.04Q107.41 20.83 106.34 21.24L106.34 21.24L106.34 21.24Q105.98 21.66 105.98 22.08L105.98 22.08L105.98 22.08Q105.98 22.27 106.29 22.46L106.29 22.46L106.29 22.46Q106.60 22.65 107.25 22.95L107.25 22.95L107.25 22.95Q108.22 23.37 108.74 23.72L108.74 23.72L108.74 23.72Q109.26 24.08 109.26 24.56L109.26 24.56L109.26 24.56Q109.26 25.00 108.70 25.67L108.70 25.67L108.70 25.67Q108.14 26.33 107.30 26.83L107.30 26.83L107.30 26.83Q106.47 27.33 105.69 27.33L105.69 27.33L105.69 27.33Q104.83 27.33 103.66 27.06L103.66 27.06L103.66 27.06Q102.48 26.80 101.70 26.53L101.70 26.53L101.70 24.02L102.58 24.02L102.58 24.02Q103.26 24.95 103.97 25.43L103.97 25.43L103.97 25.43Q104.68 25.91 105.57 25.91L105.57 25.91L105.57 25.91Q106.04 25.91 106.35 25.71L106.35 25.71L106.35 25.71Q106.67 25.51 106.67 25.28L106.67 25.28L106.67 25.28Q106.67 24.96 106.29 24.72L106.29 24.72L106.29 24.72Q105.92 24.47 105.15 24.12L105.15 24.12L105.15 24.12Q104.33 23.76 103.91 23.47L103.91 23.47L103.91 23.47Q103.49 23.18 103.49 22.81L103.49 22.81L103.49 22.81Q103.49 22.47 104.00 22.12L104.00 22.12L104.00 22.12Q104.51 21.77 105.22 21.50L105.22 21.50L105.22 21.50Q104.94 21.53 104.80 21.53L104.80 21.53L104.80 21.53Q103.95 21.53 103.24 21.20L103.24 21.20L103.24 21.20Q102.54 20.86 102.13 20.29L102.13 20.29L102.13 20.29Q101.72 19.73 101.72 19.08L101.72 19.08L101.72 19.08Q101.72 18.28 102.31 17.56L102.31 17.56L102.31 17.56Q102.90 16.83 103.84 16.39L103.84 16.39L103.84 16.39Q104.78 15.95 105.76 15.95L105.76 15.95L105.76 15.95Q106.88 15.95 107.73 16.51L107.73 16.51L110.04 16.51L110.05 17.44ZM105.63 19.94L105.63 19.94Q106.08 19.94 106.32 19.72L106.32 19.72L106.32 19.72Q106.57 19.50 106.57 19.07L106.57 19.07L106.57 19.07Q106.57 18.38 106.13 17.98L106.13 17.98L106.13 17.98Q105.69 17.58 104.96 17.58L104.96 17.58L104.96 17.58Q104.03 17.58 104.03 18.41L104.03 18.41L104.03 18.41Q104.03 19.08 104.47 19.51L104.47 19.51L104.47 19.51Q104.92 19.94 105.63 19.94L105.63 19.94ZM115.37 15.95L115.37 15.95Q116.84 15.95 117.65 17.07L117.65 17.07L117.65 17.07Q118.45 18.19 118.43 20.17L118.43 20.17L113.39 20.17L113.39 20.17Q113.53 21.03 113.99 21.54L113.99 21.54L113.99 21.54Q114.45 22.05 115.19 22.05L115.19 22.05L115.19 22.05Q116.17 22.05 118.01 21.07L118.01 21.07L118.43 21.87L116.30 23.56L116.30 23.56Q115.47 23.77 114.38 23.77L114.38 23.77L114.38 23.77Q113.36 23.77 112.54 23.29L112.54 23.29L112.54 23.29Q111.72 22.81 111.26 21.97L111.26 21.97L111.26 21.97Q110.81 21.13 110.81 20.10L110.81 20.10L110.81 20.10Q110.81 19.00 111.52 18.04L111.52 18.04L111.52 18.04Q112.24 17.08 113.31 16.51L113.31 16.51L113.31 16.51Q114.38 15.95 115.37 15.95L115.37 15.95ZM114.60 17.57L114.60 17.57Q113.99 17.57 113.68 17.98L113.68 17.98L113.68 17.98Q113.37 18.40 113.34 19.25L113.34 19.25L116.02 19.25L116.02 19.25Q115.91 18.38 115.60 17.98L115.60 17.98L115.60 17.98Q115.30 17.57 114.59 17.57L114.59 17.57L114.60 17.57ZM124.49 17.93L124.49 17.93Q123.98 17.93 123.48 18.38L123.48 18.38L123.48 22.16L125.61 22.72L125.16 23.63L119.85 23.63L119.85 22.85L121.10 21.80L121.10 18.62L119.85 17.84L119.85 17.05L122.77 15.82L123.30 17.37L124.57 16.06L124.57 16.06Q124.87 15.95 125.26 15.95L125.26 15.95L125.26 15.95Q125.99 15.95 126.51 16.28L126.51 16.28L126.51 16.28Q127.04 16.62 127.25 17.21L127.25 17.21L125.90 18.89L125.02 18.89L125.02 18.89Q125.01 18.38 124.88 18.16L124.88 18.16L124.88 18.16Q124.75 17.95 124.49 17.95L124.49 17.95L124.49 17.93Z"></path></g><defs data-v-423bf9ae=""><linearGradient data-v-423bf9ae="" gradientTransform="rotate(25)" id="754dcf0e-042e-4f38-ba3f-d39d8da7860e" x1="0%" y1="0%" x2="100%" y2="0%"><stop data-v-423bf9ae="" offset="0%" style="stop-color: rgb(184, 41, 73); stop-opacity: 1;"></stop><stop data-v-423bf9ae="" offset="100%" style="stop-color: rgb(233, 184, 76); stop-opacity: 1;"></stop></linearGradient></defs><g data-v-423bf9ae="" id="0bfcfc4d-9d34-44ba-a381-3db820fa3885" transform="matrix(4.803586662404586,0,0,4.803586662404586,162.1426134015266,-31.22538662899096)" stroke="none" fill="url(#754dcf0e-042e-4f38-ba3f-d39d8da7860e)"><path d="M16 19.586l7.496-12.954H8.504zM7.496 12.414L0 25.368h14.992zM24.504 12.414l-7.496 12.954H32z"></path></g><!----></svg>